<?xml version="1.0" encoding="UTF-8" standalone="no"?>
<!-- Created with Inkscape (http://www.inkscape.org/) -->

<svg
   xmlns:osb="http://www.openswatchbook.org/uri/2009/osb"
   xmlns:dc="http://purl.org/dc/elements/1.1/"
   xmlns:cc="http://creativecommons.org/ns#"
   xmlns:rdf="http://www.w3.org/1999/02/22-rdf-syntax-ns#"
   xmlns:svg="http://www.w3.org/2000/svg"
   xmlns="http://www.w3.org/2000/svg"
   xmlns:sodipodi="http://sodipodi.sourceforge.net/DTD/sodipodi-0.dtd"
   xmlns:inkscape="http://www.inkscape.org/namespaces/inkscape"
   width="1024"
   height="768"
   viewBox="0 0 1024 768.00001"
   id="svg2"
   version="1.1"
   inkscape:version="0.91 r13725"
   sodipodi:docname="galactic fish.svg"
   inkscape:export-filename="/Users/thomaslachance/Documents/30MinuteGame-master/assets/galacticCanvas.png"
   inkscape:export-xdpi="90.263672"
   inkscape:export-ydpi="90.263672">
  <defs
     id="defs4">
    <linearGradient
       id="linearGradient5652"
       osb:paint="solid">
      <stop
         style="stop-color:#0f8000;stop-opacity:1;"
         offset="0"
         id="stop5654" />
    </linearGradient>
  </defs>
  <sodipodi:namedview
     id="base"
     pagecolor="#2b0000"
     bordercolor="#666666"
     borderopacity="1.0"
     inkscape:pageopacity="1"
     inkscape:pageshadow="2"
     inkscape:zoom="0.7"
     inkscape:cx="692.04494"
     inkscape:cy="405.71429"
     inkscape:document-units="px"
     inkscape:current-layer="layer1"
     showgrid="false"
     units="px"
     showguides="false"
     inkscape:snap-text-baseline="false"
     inkscape:window-width="1280"
     inkscape:window-height="751"
     inkscape:window-x="0"
     inkscape:window-y="1"
     inkscape:window-maximized="1" />
  <metadata
     id="metadata7">
    <rdf:RDF>
      <cc:Work
         rdf:about="">
        <dc:format>image/svg+xml</dc:format>
        <dc:type
           rdf:resource="http://purl.org/dc/dcmitype/StillImage" />
        <dc:title></dc:title>
      </cc:Work>
    </rdf:RDF>
  </metadata>
  <g
     inkscape:label="Layer 1"
     inkscape:groupmode="layer"
     id="layer1"
     transform="translate(0,-284.36207)">
    <ellipse
       style="fill:#ffff00;fill-rule:evenodd;stroke:#000000;stroke-width:1px;stroke-linecap:butt;stroke-linejoin:miter;stroke-opacity:1;fill-opacity:1"
       id="path3336"
       cx="520"
       cy="612.36212"
       rx="134.28572"
       ry="128.57143" />
    <ellipse
       style="fill:#00ffff;fill-rule:evenodd;stroke:#000000;stroke-width:1px;stroke-linecap:butt;stroke-linejoin:miter;stroke-opacity:1"
       id="path3338"
       cx="932.85712"
       cy="380.9335"
       rx="55.714287"
       ry="54.285713" />
    <ellipse
       style="fill:#008080;fill-rule:evenodd;stroke:#000000;stroke-width:1.66203976px;stroke-linecap:butt;stroke-linejoin:miter;stroke-opacity:1"
       id="path3340"
       cx="857.14282"
       cy="933.79059"
       rx="96.811836"
       ry="95.38327" />
    <path
       sodipodi:type="star"
       style="opacity:1;fill:#ff00ff;fill-opacity:0.96894406;stroke:#008000;stroke-width:1.25899994;stroke-miterlimit:4;stroke-dasharray:none;stroke-opacity:0.8359375"
       id="path3362"
       sodipodi:sides="5"
       sodipodi:cx="387.14285"
       sodipodi:cy="740.93347"
       sodipodi:r1="55.640976"
       sodipodi:r2="23.812185"
       sodipodi:arg1="1.0612041"
       sodipodi:arg2="1.7705002"
       inkscape:flatsided="false"
       inkscape:rounded="0"
       inkscape:randomized="0"
       d="m 414.28571,789.5049 -31.8667,-25.2325 -33.08273,17.48486 14.15019,-38.1043 -26.85222,-26.06043 40.61199,1.68275 16.48715,-33.59109 10.94941,39.1443 37.04183,5.29999 -33.84489,22.50976 z"
       inkscape:transform-center-x="-0.67572807"
       inkscape:transform-center-y="-0.87786821"
       transform="matrix(0.3317951,0,0,0.26291802,-76.343554,114.29321)" />
    <path
       sodipodi:type="star"
       style="color:#000000;clip-rule:nonzero;display:inline;overflow:visible;visibility:visible;opacity:1;isolation:auto;mix-blend-mode:normal;color-interpolation:sRGB;color-interpolation-filters:linearRGB;solid-color:#000000;solid-opacity:1;fill:#ffffff;fill-opacity:1;fill-rule:nonzero;stroke:#000000;stroke-width:1.25899994;stroke-linecap:butt;stroke-linejoin:miter;stroke-miterlimit:4;stroke-dasharray:none;stroke-dashoffset:0;stroke-opacity:1;color-rendering:auto;image-rendering:auto;shape-rendering:auto;text-rendering:auto;enable-background:accumulate"
       id="path3364"
       sodipodi:sides="5"
       sodipodi:cx="491.42856"
       sodipodi:cy="513.79065"
       sodipodi:r1="115.44059"
       sodipodi:r2="49.404072"
       sodipodi:arg1="0.71533758"
       sodipodi:arg2="1.3436561"
       inkscape:flatsided="false"
       inkscape:rounded="0"
       inkscape:randomized="0"
       d="m 578.57141,589.50493 -76.01744,-27.57918 -56.20535,58.13968 2.73868,-80.81933 -72.66253,-35.48831 77.71004,-22.3699 11.29744,-80.07267 45.28876,66.99397 79.64473,-13.99932 -49.72004,63.77445 z"
       inkscape:transform-center-x="1.2183066"
       inkscape:transform-center-y="-0.40742263"
       transform="matrix(0.15165729,0,0,0.13141094,522.12421,905.68199)" />
    <path
       sodipodi:type="star"
       style="color:#000000;clip-rule:nonzero;display:inline;overflow:visible;visibility:visible;opacity:1;isolation:auto;mix-blend-mode:normal;color-interpolation:sRGB;color-interpolation-filters:linearRGB;solid-color:#000000;solid-opacity:1;fill:#00ffff;fill-opacity:1;fill-rule:nonzero;stroke:#8e8e8e;stroke-width:1.25899994;stroke-linecap:butt;stroke-linejoin:miter;stroke-miterlimit:4;stroke-dasharray:none;stroke-dashoffset:0;stroke-opacity:0.94409946;color-rendering:auto;image-rendering:auto;shape-rendering:auto;text-rendering:auto;enable-background:accumulate"
       id="path4206"
       sodipodi:sides="5"
       sodipodi:cx="577.14288"
       sodipodi:cy="675.21924"
       sodipodi:r1="103.05536"
       sodipodi:r2="22.485981"
       sodipodi:arg1="0.80500349"
       sodipodi:arg2="1.4285892"
       inkscape:flatsided="false"
       inkscape:rounded="0"
       inkscape:randomized="0"
       d="m 648.57145,749.50495 -68.24167,-52.02671 -51.76416,68.62915 28.3925,-80.97882 -81.26621,-28.02307 85.78921,1.97904 1.53888,-85.94836 24.62814,82.20194 82.21729,-25.09594 -70.56817,48.82455 z"
       inkscape:transform-center-x="0.90652719"
       inkscape:transform-center-y="-1.1764188"
       transform="matrix(0.20771872,0,0,0.2101705,639.5767,188.25111)" />
    <path
       transform="matrix(0.15165729,0,0,0.13141094,399.26707,281.39627)"
       inkscape:transform-center-y="-0.40742263"
       inkscape:transform-center-x="1.2183066"
       d="m 578.57141,589.50493 -76.01744,-27.57918 -56.20535,58.13968 2.73868,-80.81933 -72.66253,-35.48831 77.71004,-22.3699 11.29744,-80.07267 45.28876,66.99397 79.64473,-13.99932 -49.72004,63.77445 z"
       inkscape:randomized="0"
       inkscape:rounded="0"
       inkscape:flatsided="false"
       sodipodi:arg2="1.3436561"
       sodipodi:arg1="0.71533758"
       sodipodi:r2="49.404072"
       sodipodi:r1="115.44059"
       sodipodi:cy="513.79065"
       sodipodi:cx="491.42856"
       sodipodi:sides="5"
       id="path5658"
       style="color:#000000;clip-rule:nonzero;display:inline;overflow:visible;visibility:visible;opacity:1;isolation:auto;mix-blend-mode:normal;color-interpolation:sRGB;color-interpolation-filters:linearRGB;solid-color:#000000;solid-opacity:1;fill:#ffffff;fill-opacity:1;fill-rule:nonzero;stroke:#000000;stroke-width:1.25899994;stroke-linecap:butt;stroke-linejoin:miter;stroke-miterlimit:4;stroke-dasharray:none;stroke-dashoffset:0;stroke-opacity:1;color-rendering:auto;image-rendering:auto;shape-rendering:auto;text-rendering:auto;enable-background:accumulate"
       sodipodi:type="star" />
    <path
       sodipodi:type="star"
       style="color:#000000;clip-rule:nonzero;display:inline;overflow:visible;visibility:visible;opacity:1;isolation:auto;mix-blend-mode:normal;color-interpolation:sRGB;color-interpolation-filters:linearRGB;solid-color:#000000;solid-opacity:1;fill:#ffffff;fill-opacity:1;fill-rule:nonzero;stroke:#000000;stroke-width:1.25899994;stroke-linecap:butt;stroke-linejoin:miter;stroke-miterlimit:4;stroke-dasharray:none;stroke-dashoffset:0;stroke-opacity:1;color-rendering:auto;image-rendering:auto;shape-rendering:auto;text-rendering:auto;enable-background:accumulate"
       id="path5660"
       sodipodi:sides="5"
       sodipodi:cx="491.42856"
       sodipodi:cy="513.79065"
       sodipodi:r1="115.44059"
       sodipodi:r2="49.404072"
       sodipodi:arg1="0.71533758"
       sodipodi:arg2="1.3436561"
       inkscape:flatsided="false"
       inkscape:rounded="0"
       inkscape:randomized="0"
       d="m 578.57141,589.50493 -76.01744,-27.57918 -56.20535,58.13968 2.73868,-80.81933 -72.66253,-35.48831 77.71004,-22.3699 11.29744,-80.07267 45.28876,66.99397 79.64473,-13.99932 -49.72004,63.77445 z"
       inkscape:transform-center-x="1.2183066"
       inkscape:transform-center-y="-0.40742263"
       transform="matrix(0.15165729,0,0,0.13141094,156.40993,314.25341)" />
    <path
       transform="matrix(0.15165729,0,0,0.13141094,247.8385,862.82484)"
       inkscape:transform-center-y="-0.40742263"
       inkscape:transform-center-x="1.2183066"
       d="m 578.57141,589.50493 -76.01744,-27.57918 -56.20535,58.13968 2.73868,-80.81933 -72.66253,-35.48831 77.71004,-22.3699 11.29744,-80.07267 45.28876,66.99397 79.64473,-13.99932 -49.72004,63.77445 z"
       inkscape:randomized="0"
       inkscape:rounded="0"
       inkscape:flatsided="false"
       sodipodi:arg2="1.3436561"
       sodipodi:arg1="0.71533758"
       sodipodi:r2="49.404072"
       sodipodi:r1="115.44059"
       sodipodi:cy="513.79065"
       sodipodi:cx="491.42856"
       sodipodi:sides="5"
       id="path5662"
       style="color:#000000;clip-rule:nonzero;display:inline;overflow:visible;visibility:visible;opacity:1;isolation:auto;mix-blend-mode:normal;color-interpolation:sRGB;color-interpolation-filters:linearRGB;solid-color:#000000;solid-opacity:1;fill:#ffffff;fill-opacity:1;fill-rule:nonzero;stroke:#000000;stroke-width:1.25899994;stroke-linecap:butt;stroke-linejoin:miter;stroke-miterlimit:4;stroke-dasharray:none;stroke-dashoffset:0;stroke-opacity:1;color-rendering:auto;image-rendering:auto;shape-rendering:auto;text-rendering:auto;enable-background:accumulate"
       sodipodi:type="star" />
    <path
       sodipodi:type="star"
       style="color:#000000;clip-rule:nonzero;display:inline;overflow:visible;visibility:visible;opacity:1;isolation:auto;mix-blend-mode:normal;color-interpolation:sRGB;color-interpolation-filters:linearRGB;solid-color:#000000;solid-opacity:1;fill:#ffffff;fill-opacity:1;fill-rule:nonzero;stroke:#000000;stroke-width:1.25899994;stroke-linecap:butt;stroke-linejoin:miter;stroke-miterlimit:4;stroke-dasharray:none;stroke-dashoffset:0;stroke-opacity:1;color-rendering:auto;image-rendering:auto;shape-rendering:auto;text-rendering:auto;enable-background:accumulate"
       id="path5664"
       sodipodi:sides="5"
       sodipodi:cx="491.42856"
       sodipodi:cy="513.79065"
       sodipodi:r1="115.44059"
       sodipodi:r2="49.404072"
       sodipodi:arg1="0.71533758"
       sodipodi:arg2="1.3436561"
       inkscape:flatsided="false"
       inkscape:rounded="0"
       inkscape:randomized="0"
       d="m 578.57141,589.50493 -76.01744,-27.57918 -56.20535,58.13968 2.73868,-80.81933 -72.66253,-35.48831 77.71004,-22.3699 11.29744,-80.07267 45.28876,66.99397 79.64473,-13.99932 -49.72004,63.77445 z"
       inkscape:transform-center-x="1.2183066"
       inkscape:transform-center-y="-0.40742263"
       transform="matrix(0.15165729,0,0,0.13141094,362.12422,878.53913)" />
    <path
       transform="matrix(0.06602426,0,0,0.07365355,714.22265,667.31827)"
       inkscape:transform-center-y="-0.22835304"
       inkscape:transform-center-x="0.53039191"
       d="m 578.57141,589.50493 -76.01744,-27.57918 -56.20535,58.13968 2.73868,-80.81933 -72.66253,-35.48831 77.71004,-22.3699 11.29744,-80.07267 45.28876,66.99397 79.64473,-13.99932 -49.72004,63.77445 z"
       inkscape:randomized="0"
       inkscape:rounded="0"
       inkscape:flatsided="false"
       sodipodi:arg2="1.3436561"
       sodipodi:arg1="0.71533758"
       sodipodi:r2="49.404072"
       sodipodi:r1="115.44059"
       sodipodi:cy="513.79065"
       sodipodi:cx="491.42856"
       sodipodi:sides="5"
       id="path5666"
       style="color:#000000;clip-rule:nonzero;display:inline;overflow:visible;visibility:visible;opacity:1;isolation:auto;mix-blend-mode:normal;color-interpolation:sRGB;color-interpolation-filters:linearRGB;solid-color:#000000;solid-opacity:1;fill:#ffffff;fill-opacity:1;fill-rule:nonzero;stroke:#000000;stroke-width:1.25899994;stroke-linecap:butt;stroke-linejoin:miter;stroke-miterlimit:4;stroke-dasharray:none;stroke-dashoffset:0;stroke-opacity:1;color-rendering:auto;image-rendering:auto;shape-rendering:auto;text-rendering:auto;enable-background:accumulate"
       sodipodi:type="star" />
    <path
       sodipodi:type="star"
       style="color:#000000;clip-rule:nonzero;display:inline;overflow:visible;visibility:visible;opacity:1;isolation:auto;mix-blend-mode:normal;color-interpolation:sRGB;color-interpolation-filters:linearRGB;solid-color:#000000;solid-opacity:1;fill:#ffffff;fill-opacity:1;fill-rule:nonzero;stroke:#000000;stroke-width:1.25899994;stroke-linecap:butt;stroke-linejoin:miter;stroke-miterlimit:4;stroke-dasharray:none;stroke-dashoffset:0;stroke-opacity:1;color-rendering:auto;image-rendering:auto;shape-rendering:auto;text-rendering:auto;enable-background:accumulate"
       id="path5668"
       sodipodi:sides="5"
       sodipodi:cx="491.42856"
       sodipodi:cy="513.79065"
       sodipodi:r1="115.44059"
       sodipodi:r2="49.404072"
       sodipodi:arg1="0.71533758"
       sodipodi:arg2="1.3436561"
       inkscape:flatsided="false"
       inkscape:rounded="0"
       inkscape:randomized="0"
       d="m 578.57141,589.50493 -76.01744,-27.57918 -56.20535,58.13968 2.73868,-80.81933 -72.66253,-35.48831 77.71004,-22.3699 11.29744,-80.07267 45.28876,66.99397 79.64473,-13.99932 -49.72004,63.77445 z"
       inkscape:transform-center-x="0.63635717"
       inkscape:transform-center-y="-0.2481592"
       transform="matrix(0.07921541,0,0,0.08004164,787.84772,430.4848)" />
    <path
       transform="matrix(0.15165729,0,0,0.13141094,932.12421,247.11056)"
       inkscape:transform-center-y="-0.40742263"
       inkscape:transform-center-x="1.2183066"
       d="m 578.57141,589.50493 -76.01744,-27.57918 -56.20535,58.13968 2.73868,-80.81933 -72.66253,-35.48831 77.71004,-22.3699 11.29744,-80.07267 45.28876,66.99397 79.64473,-13.99932 -49.72004,63.77445 z"
       inkscape:randomized="0"
       inkscape:rounded="0"
       inkscape:flatsided="false"
       sodipodi:arg2="1.3436561"
       sodipodi:arg1="0.71533758"
       sodipodi:r2="49.404072"
       sodipodi:r1="115.44059"
       sodipodi:cy="513.79065"
       sodipodi:cx="491.42856"
       sodipodi:sides="5"
       id="path5670"
       style="color:#000000;clip-rule:nonzero;display:inline;overflow:visible;visibility:visible;opacity:1;isolation:auto;mix-blend-mode:normal;color-interpolation:sRGB;color-interpolation-filters:linearRGB;solid-color:#000000;solid-opacity:1;fill:#ffffff;fill-opacity:1;fill-rule:nonzero;stroke:#000000;stroke-width:1.25899994;stroke-linecap:butt;stroke-linejoin:miter;stroke-miterlimit:4;stroke-dasharray:none;stroke-dashoffset:0;stroke-opacity:1;color-rendering:auto;image-rendering:auto;shape-rendering:auto;text-rendering:auto;enable-background:accumulate"
       sodipodi:type="star" />
    <path
       transform="matrix(0.3317951,0,0,0.26291802,85.085018,684.29321)"
       inkscape:transform-center-y="-0.87786821"
       inkscape:transform-center-x="-0.67572807"
       d="m 414.28571,789.5049 -31.8667,-25.2325 -33.08273,17.48486 14.15019,-38.1043 -26.85222,-26.06043 40.61199,1.68275 16.48715,-33.59109 10.94941,39.1443 37.04183,5.29999 -33.84489,22.50976 z"
       inkscape:randomized="0"
       inkscape:rounded="0"
       inkscape:flatsided="false"
       sodipodi:arg2="1.7705002"
       sodipodi:arg1="1.0612041"
       sodipodi:r2="23.812185"
       sodipodi:r1="55.640976"
       sodipodi:cy="740.93347"
       sodipodi:cx="387.14285"
       sodipodi:sides="5"
       id="path5672"
       style="opacity:1;fill:#ff00ff;fill-opacity:0.96894406;stroke:#008000;stroke-width:1.25899994;stroke-miterlimit:4;stroke-dasharray:none;stroke-opacity:0.8359375"
       sodipodi:type="star" />
    <path
       transform="matrix(0.20771872,0,0,0.2101705,11.005273,586.82253)"
       inkscape:transform-center-y="-1.1764188"
       inkscape:transform-center-x="0.90652719"
       d="m 648.57145,749.50495 -68.24167,-52.02671 -51.76416,68.62915 28.3925,-80.97882 -81.26621,-28.02307 85.78921,1.97904 1.53888,-85.94836 24.62814,82.20194 82.21729,-25.09594 -70.56817,48.82455 z"
       inkscape:randomized="0"
       inkscape:rounded="0"
       inkscape:flatsided="false"
       sodipodi:arg2="1.4285892"
       sodipodi:arg1="0.80500349"
       sodipodi:r2="22.485981"
       sodipodi:r1="103.05536"
       sodipodi:cy="675.21924"
       sodipodi:cx="577.14288"
       sodipodi:sides="5"
       id="path5674"
       style="color:#000000;clip-rule:nonzero;display:inline;overflow:visible;visibility:visible;opacity:1;isolation:auto;mix-blend-mode:normal;color-interpolation:sRGB;color-interpolation-filters:linearRGB;solid-color:#000000;solid-opacity:1;fill:#00ffff;fill-opacity:1;fill-rule:nonzero;stroke:#8e8e8e;stroke-width:1.25899994;stroke-linecap:butt;stroke-linejoin:miter;stroke-miterlimit:4;stroke-dasharray:none;stroke-dashoffset:0;stroke-opacity:0.94409946;color-rendering:auto;image-rendering:auto;shape-rendering:auto;text-rendering:auto;enable-background:accumulate"
       sodipodi:type="star" />
    <ellipse
       ry="87.566635"
       rx="95.423775"
       cy="480.21915"
       cx="115.71428"
       id="ellipse5695"
       style="fill:#00ff00;fill-rule:evenodd;stroke:#000000;stroke-width:1.58102489px;stroke-linecap:butt;stroke-linejoin:miter;stroke-opacity:1" />
    <ellipse
       style="fill:#000000;fill-rule:evenodd;stroke:#000000;stroke-width:1.9891293px;stroke-linecap:butt;stroke-linejoin:miter;stroke-opacity:1"
       id="path5697"
       cx="575.19525"
       cy="583.2688"
       rx="43.952145"
       ry="36.376003" />
    <ellipse
       ry="36.376003"
       rx="43.952145"
       cy="583.86053"
       cx="472.03714"
       id="ellipse5699"
       style="fill:#000000;fill-rule:evenodd;stroke:#000000;stroke-width:1.9891293px;stroke-linecap:butt;stroke-linejoin:miter;stroke-opacity:1" />
    <path
       style="opacity:1;fill:#000000;fill-opacity:1;fill-rule:evenodd;stroke:#000000;stroke-width:2.56090045;stroke-miterlimit:4;stroke-dasharray:none;stroke-opacity:1"
       id="path5701"
       d="m 524.53112,580.62232 c 3.0706,0.0622 6.14242,0.0284 9.21351,0.0134 2.43392,-0.13737 4.54831,0.78614 6.71204,1.49691 1.10605,0.29116 2.14244,0.67817 3.23495,1 0,0 -16.87901,8.76465 -16.87901,8.76465 l 0,0 c -1.08826,-0.34534 -2.20182,-0.64179 -3.26236,-1.03824 -2.00683,-0.67105 -3.97192,-1.16134 -6.20004,-0.99883 -3.08691,-0.0156 -6.17444,-0.0479 -9.26091,0.0134 0,0 16.44182,-9.25116 16.44182,-9.25116 z"
       inkscape:connector-curvature="0" />
    <path
       inkscape:connector-curvature="0"
       d="m 623.10255,561.33661 c 3.0706,0.0622 6.14242,0.0284 9.21351,0.0134 2.43392,-0.13737 4.54831,0.78614 6.71204,1.49691 1.10605,0.29116 2.14244,0.67817 3.23495,1 0,0 -16.87901,8.76465 -16.87901,8.76465 l 0,0 c -1.08826,-0.34534 -2.20182,-0.64179 -3.26236,-1.03824 -2.00683,-0.67105 -3.97192,-1.16134 -6.20004,-0.99883 -3.08691,-0.0156 -6.17444,-0.0479 -9.26091,0.0134 0,0 16.44182,-9.25116 16.44182,-9.25116 z"
       id="path5707"
       style="opacity:1;fill:#000000;fill-opacity:1;fill-rule:evenodd;stroke:#000000;stroke-width:2.56090045;stroke-miterlimit:4;stroke-dasharray:none;stroke-opacity:1" />
    <path
       style="opacity:1;fill:#000000;fill-opacity:1;fill-rule:evenodd;stroke:#000000;stroke-width:3.11181331;stroke-miterlimit:4;stroke-dasharray:none;stroke-opacity:1"
       id="path5709"
       d="m 405.37934,584.44789 c 4.20393,-0.067 8.40954,-0.0306 12.61416,-0.0145 3.33225,0.14815 6.22705,-0.84784 9.18939,-1.61439 1.51429,-0.314 2.9332,-0.73138 4.42895,-1.07846 0,0 -23.10893,-9.45243 -23.10893,-9.45243 l 0,0 c -1.48993,0.37244 -3.0145,0.69215 -4.46647,1.11971 -2.74754,0.72371 -5.43793,1.25248 -8.48844,1.07721 -4.22625,0.0169 -8.45337,0.0516 -12.67904,-0.0145 0,0 22.51038,9.97712 22.51038,9.97712 z"
       inkscape:connector-curvature="0" />
    <path
       sodipodi:type="spiral"
       style="fill:none;fill-rule:evenodd;stroke:#000000;stroke-width:1px;stroke-linecap:butt;stroke-linejoin:miter;stroke-opacity:1"
       id="path5711"
       sodipodi:cx="520.22858"
       sodipodi:cy="673.55487"
       sodipodi:expansion="1"
       sodipodi:revolution="3"
       sodipodi:radius="33.881546"
       sodipodi:argument="-18.669703"
       sodipodi:t0="0"
       d="m 520.22858,673.55487 c 1.67136,0.30389 0.41496,2.40289 -0.50508,2.77792 -2.49325,1.0163 -4.757,-1.51124 -5.05076,-3.78807 -0.52548,-4.07271 3.25839,-7.21205 7.07106,-7.32361 5.59526,-0.16371 9.71394,5.01987 9.59645,10.35406 -0.15659,7.10965 -6.7852,12.23424 -13.63705,11.8693 -8.62236,-0.45924 -14.76373,-8.55208 -14.14214,-16.92006 0.75283,-10.13473 10.31977,-17.29848 20.20305,-16.41498 11.6471,1.04119 19.83655,12.08795 18.68782,23.48605 -1.32625,13.15956 -13.85645,22.37682 -26.76904,20.96067 -14.6721,-1.60912 -24.91862,-15.6252 -23.23351,-30.05204 1.89044,-16.18473 17.39411,-27.46155 33.33503,-25.50635 17.69744,2.17064 30.00533,19.16316 27.7792,36.61802"
       transform="matrix(1.16261,0,0,1.0343227,-83.032189,-21.001248)" />
    <path
       style="fill:none;fill-rule:evenodd;stroke:#000000;stroke-width:1px;stroke-linecap:butt;stroke-linejoin:miter;stroke-opacity:1"
       d="m 558.61436,657.39242 c 1.34687,0 2.71206,0.22143 4.04061,0 0.94983,-0.1583 4.85239,-2.54704 6.06091,-3.03045 1.45516,-0.58207 3.69706,-1.00503 5.05077,-2.02031 0.7619,-0.57143 1.16847,-1.59439 2.0203,-2.0203 1.24175,-0.62088 2.72353,-0.57113 4.04061,-1.01016 0.71429,-0.23809 1.34687,-0.67343 2.02031,-1.01015 1.34687,-0.67343 2.74935,-1.24555 4.04061,-2.0203 1.04104,-0.62463 1.94457,-1.47737 3.03045,-2.02031 0.30117,-0.15058 0.72999,0.18678 1.01016,0 0.79243,-0.52828 1.2584,-1.44887 2.0203,-2.0203 0.60234,-0.45176 1.41797,-0.5584 2.02031,-1.01016 0.7619,-0.57142 1.34687,-1.34687 2.0203,-2.0203 0.33672,-0.33672 0.58424,-0.79719 1.01015,-1.01015 0.30117,-0.15059 0.70899,0.15058 1.01016,0 0.42591,-0.21296 0.61393,-0.74601 1.01015,-1.01016 0.62647,-0.41764 1.39383,-0.5925 2.0203,-1.01015 1.84832,-1.23221 0.10078,-1.28788 3.03046,-2.0203 0.65333,-0.16334 1.45998,0.37355 2.02031,0 0.62647,-0.41765 0.47775,-1.48791 1.01015,-2.02031 0.5324,-0.5324 1.39383,-0.5925 2.0203,-1.01015 0.39622,-0.26414 0.67344,-0.67344 1.01016,-1.01015 0.67343,-0.33672 1.39383,-0.59251 2.0203,-1.01016 0.39622,-0.26414 0.58424,-0.79719 1.01016,-1.01015 0.30116,-0.15058 0.70898,0.15059 1.01015,0 0.42592,-0.21296 0.58423,-0.79719 1.01015,-1.01015 0.30117,-0.15059 0.67344,0 1.01015,0 0.67344,-0.33672 1.39384,-0.59251 2.02031,-1.01015 0.79243,-0.52829 1.16847,-1.59439 2.0203,-2.02031 0.60234,-0.30117 1.41797,0.30117 2.02031,0 0.42592,-0.21296 0.61394,-0.74601 1.01015,-1.01015 0.62647,-0.41765 1.39384,-0.59251 2.02031,-1.01015 0.39621,-0.26415 0.58423,-0.7972 1.01015,-1.01016 0.30117,-0.15058 0.70898,0.15059 1.01015,0 0.42592,-0.21296 0.58424,-0.79719 1.01015,-1.01015 0.30117,-0.15058 0.77206,0.2381 1.01016,0 0.23809,-0.23809 -0.2381,-0.77206 0,-1.01015 0.67368,-0.67369 1.34662,0.67368 2.0203,0 0.2381,-0.2381 -0.23809,-0.77206 0,-1.01015 0.2381,-0.2381 0.77206,0.23809 1.01015,0 0.2381,-0.2381 -0.23809,-0.77206 0,-1.01016 2.09004,-2.09004 -0.0817,3.19386 2.02031,-1.01015 0.15058,-0.30117 0,-0.67343 0,-1.01015 0.33672,-0.33672 0.79719,-0.58424 1.01015,-1.01015 0.15059,-0.30117 -0.23809,-0.77206 0,-1.01016 0.2381,-0.23809 0.77206,0.2381 1.01015,0 0.2381,-0.23809 0,-0.67343 0,-1.01015 0,-0.67343 -0.30117,-1.41797 0,-2.0203 0.15059,-0.30117 0.77206,0.23809 1.01016,0 0.23809,-0.2381 -0.15059,-0.70899 0,-1.01016 2.102,-4.20401 -0.0697,1.07989 2.0203,-1.01015 0.2381,-0.2381 0,-0.67343 0,-1.01015 0,-0.67344 -0.30117,-1.41797 0,-2.02031 0.15059,-0.30117 0.77206,0.2381 1.01015,0 0.50508,-0.50507 -0.50507,-2.52538 0,-3.03046 0.2381,-0.23809 0.77206,0.2381 1.01016,0 0.47619,-0.47619 -0.30117,-1.41796 0,-2.0203 2.102,-4.20401 -0.0697,1.07989 2.0203,-1.01015 0.2381,-0.2381 0,-0.67344 0,-1.01016 0.33672,0 0.77206,0.2381 1.01015,0 0.2381,-0.23809 -0.23809,-0.77205 0,-1.01015 0.2381,-0.23809 0.77206,0.2381 1.01016,0 0.47619,-0.47619 -0.30117,-1.41796 0,-2.0203 0.42591,-0.85184 1.49202,-1.22788 2.0203,-2.02031 0.41765,-0.62647 0.77206,-1.30602 1.01015,-2.0203 0.10648,-0.31944 -0.23809,-0.77206 0,-1.01016 1.34687,-1.34687 1.01016,1.68359 1.01016,-1.01015"
       id="path5715"
       inkscape:connector-curvature="0" />
    <path
       style="fill:none;fill-rule:evenodd;stroke:#000000;stroke-width:1px;stroke-linecap:butt;stroke-linejoin:miter;stroke-opacity:1"
       d="m 485.88337,658.40258 c -3.36717,0 -6.73435,0 -10.10152,0 -1.68359,0 -3.37409,0.15242 -5.05076,0 -2.03977,-0.18544 -4.03333,-0.7205 -6.06092,-1.01016 -17.69876,-2.52839 0.31937,0.38995 -14.14213,-2.0203 -2.02031,-0.33672 -4.04061,-0.67344 -6.06092,-1.01015 -2.02031,-0.33672 -4.09912,-0.42162 -6.06092,-1.01016 -1.44233,-0.4327 -2.57972,-1.65508 -4.04061,-2.0203 -1.30665,-0.32666 -2.74556,0.37001 -4.04061,0 -1.16734,-0.33353 -1.90323,-1.56942 -3.03045,-2.02031 -5.46697,-2.18678 1.59372,2.74608 -4.04061,-1.01015 -2.00117,0.10084 -0.47776,-1.48791 -1.01016,-2.0203 -0.47619,-0.47619 -1.54411,0.47619 -2.0203,0 -0.2381,-0.2381 0.23809,-0.77206 0,-1.01016 -0.2381,-0.23809 -0.77206,0.2381 -1.01015,0 -0.2381,-0.23809 0,-0.67343 0,-1.01015 0,-1.01015 0.39791,-2.10198 0,-3.03046 -0.6632,-1.54746 -2.19517,-2.57884 -3.03046,-4.04061 -0.52829,-0.9245 -0.46232,-2.1174 -1.01015,-3.03045 -0.49,-0.81666 -1.42536,-1.27662 -2.02031,-2.02031 -0.75841,-0.94801 -1.29187,-2.05921 -2.0203,-3.03046 -0.28572,-0.38095 -0.74601,-0.61393 -1.01016,-1.01015 -2.94125,-4.41188 0.44771,0.33297 -1.01015,-4.04061 -0.30117,-0.90351 -1.59439,-1.16847 -2.0203,-2.0203 -0.15059,-0.30117 0.15058,-0.70899 0,-1.01016 -0.21296,-0.42591 -0.7972,-0.58423 -1.01016,-1.01015 -0.15058,-0.30117 0.2381,-0.77206 0,-1.01015 -0.23809,-0.2381 -0.70898,0.15058 -1.01015,0 -0.42592,-0.21296 -0.5584,-0.85957 -1.01015,-1.01015 -0.731,-0.24367 -3.70763,0.33298 -4.04061,0 -0.2381,-0.2381 0.23809,-0.77206 0,-1.01016 -2.09004,-2.09004 0.0817,3.19386 -2.02031,-1.01015 -0.15058,-0.30117 -0.23809,-1.24825 0,-1.01015 0.5324,0.5324 1.76308,2.0203 1.01016,2.0203 -0.95239,0 -1.34687,-1.34687 -2.02031,-2.0203 -0.33672,-0.33672 -0.67343,-0.67344 -1.01015,-1.01015 -0.33672,-0.33672 -0.58424,-0.7972 -1.01015,-1.01016 -1.39337,-0.69668 -0.90356,1.22335 -2.02031,-1.01015 -0.15058,-0.30117 0.2381,-0.77206 0,-1.01015 -0.99649,-0.99649 -2.0203,2.06988 -2.0203,-1.01015"
       id="path5717"
       inkscape:connector-curvature="0" />
    <path
       style="fill:none;fill-rule:evenodd;stroke:#000000;stroke-width:1px;stroke-linecap:butt;stroke-linejoin:miter;stroke-opacity:1"
       d="m 566.69558,687.697 c 5.38748,0 10.77496,0 16.16244,0 1.34687,0 2.69374,0 4.04061,0 1.01015,0 2.05046,0.245 3.03046,0 0.46197,-0.11549 0.5584,-0.85957 1.01015,-1.01015 0.63888,-0.21296 1.38143,0.21296 2.0203,0 0.45176,-0.15059 0.58424,-0.7972 1.01016,-1.01015 0.30117,-0.15059 0.70898,0.15058 1.01015,0 0.42592,-0.21296 0.5584,-0.85957 1.01015,-1.01016 0.63888,-0.21296 1.35995,0.13207 2.02031,0 1.04411,-0.20882 1.99745,-0.7519 3.03045,-1.01015 0.36667,-0.0917 2.90672,0.12374 3.03046,0 0.47619,-0.47619 -0.30117,-1.41797 0,-2.0203 2.10201,-4.20402 -0.0697,1.07988 2.02031,-1.01016 0.23809,-0.23809 -0.2381,-0.77205 0,-1.01015 0.23809,-0.23809 0.70898,0.15059 1.01015,0 0.42592,-0.21296 0.58423,-0.79719 1.01015,-1.01015 0.60234,-0.30117 1.54412,0.47619 2.02031,0 0.23809,-0.2381 -0.2381,-0.77206 0,-1.01015 0.23809,-0.2381 0.77205,0.23809 1.01015,0 0.2381,-0.2381 -0.15058,-0.70899 0,-1.01016 0.21296,-0.42591 0.67343,-0.67343 1.01015,-1.01015 0.33672,-0.33672 0.58424,-0.79719 1.01016,-1.01015 0.60233,-0.30117 1.54411,0.47619 2.0203,0 0.2381,-0.2381 -0.2381,-0.77206 0,-1.01015 0.2381,-0.2381 0.67344,0 1.01015,0 2.35703,0 4.71405,0 7.07107,0 3.81613,0 -4.48957,0 2.02031,0 0.33671,0 1.34687,0 1.01015,0 -0.67344,0 -2.02031,0.67343 -2.02031,0 0,-0.67344 1.34687,0 2.02031,0 0.67343,0 2.0203,-0.67344 2.0203,0 0,0.67343 -2.69374,0 -2.0203,0 3.03046,0 6.06091,0 9.09137,0"
       id="path5719"
       inkscape:connector-curvature="0" />
    <path
       style="fill:none;fill-rule:evenodd;stroke:#000000;stroke-width:1px;stroke-linecap:butt;stroke-linejoin:miter;stroke-opacity:1"
       d="m 486.89353,686.68685 c -16.16244,0 -32.32488,0 -48.48733,0 -2.69374,0 -5.38748,0 -8.08122,0 -0.56439,0 -4.45464,0.1987 -5.05076,0 -4.22623,1.82924 -1.16847,-1.59439 -2.0203,-2.02031 -0.60234,-0.30117 -1.41797,0.30117 -2.02031,0 -0.30117,-0.15058 0.2381,-0.77205 0,-1.01015 -0.23809,-0.23809 -0.70898,0.15059 -1.01015,0 -0.42592,-0.21296 -0.58424,-0.79719 -1.01015,-1.01015 -0.40052,-0.20026 -2.82395,0.20651 -3.03046,0 -0.2381,-0.2381 0.23809,-0.77206 0,-1.01015 -0.2381,-0.2381 -0.77206,0.23809 -1.01015,0 -0.2381,-0.2381 0.23809,-0.77206 0,-1.01016 -0.2381,-0.23809 -0.70899,0.15059 -1.01016,0 -0.42591,-0.21296 -0.58423,-0.79719 -1.01015,-1.01015 -0.30117,-0.15058 -0.77206,0.2381 -1.01015,0 -1.34687,-1.34687 1.68359,-1.01015 -1.01015,-1.01015"
       id="path5721"
       inkscape:connector-curvature="0" />
    <path
       style="fill:none;fill-rule:evenodd;stroke:#000000;stroke-width:1px;stroke-linecap:butt;stroke-linejoin:miter;stroke-opacity:1"
       d="m 524.26917,640.21983 c 0,-8.08122 0,-16.16244 0,-24.24366 0,-18.51946 0,-37.03893 0,-55.55839 0,-6.06091 0,-12.12183 0,-18.18275 0,-2.69374 0,-5.38748 0,-8.08122 0,-0.67343 0.16333,-1.36697 0,-2.0203 -0.18261,-0.73044 -0.77206,-1.30602 -1.01015,-2.02031 -0.10648,-0.31943 0,-0.67343 0,-1.01015 0,-0.67343 0,-1.34687 0,-2.0203 0,-1.68359 0,-3.36718 0,-5.05077 0,-6.39763 0,-12.79526 0,-19.19289 0,-2.02031 0,-4.04061 0,-6.06092 0,-0.67343 0.30117,-1.41797 0,-2.02031 -0.15059,-0.30116 -0.70898,0.15059 -1.01015,0 -0.42592,-0.21295 -0.58424,-0.79719 -1.01016,-1.01015 -0.30117,-0.15058 -0.77205,0.2381 -1.01015,0 -0.23809,-0.23809 0.2381,-0.77205 0,-1.01015 -0.23809,-0.2381 -0.70898,0.15058 -1.01015,0 -2.2335,-1.11675 -0.31347,-0.62694 -1.01015,-2.02031 -0.84204,-1.68406 -2.02031,-0.45642 -2.02031,-3.03045"
       id="path5723"
       inkscape:connector-curvature="0" />
    <path
       style="fill:none;fill-rule:evenodd;stroke:#000000;stroke-width:1px;stroke-linecap:butt;stroke-linejoin:miter;stroke-opacity:1"
       d="m 522.24887,703.85944 c 0,7.40779 0,14.81557 0,22.22336 0,0.69505 0.19606,5.47272 0,6.06091 -1.31133,3.93397 -1.01016,0.0945 -1.01016,4.04061 0,0.33672 0,-0.67343 0,-1.01015 0,-0.33672 -0.23809,-0.77206 0,-1.01015 0.2381,-0.2381 0.77206,0.23809 1.01016,0 0.23809,-0.2381 -0.2381,-0.77206 0,-1.01015 0.23809,-0.2381 0.77205,0.23809 1.01015,0 0.77731,-0.77732 -1.5714,-3.03046 2.0203,-3.03046 0.33672,0 0,1.34687 0,1.01015 0,-0.67343 0,-1.34687 0,-2.0203 0,-0.33672 0.15059,-0.70899 0,-1.01016 -0.204,-0.40801 -4.01033,-4.01033 -4.04061,-4.04061 -0.33671,-0.33671 -0.85956,-0.5584 -1.01015,-1.01015 -0.21296,-0.63888 0,-1.34687 0,-2.0203 0,-2.35703 0,-4.71405 0,-7.07107 0,-0.33672 0,-0.67344 0,-1.01016 0,-0.33671 -0.33672,-1.01015 0,-1.01015 0.33672,0 0,0.67344 0,1.01015 0,0.67344 0,1.34687 0,2.02031 0,3.03046 0,6.06092 0,9.09137 0,0.33672 0,0.67344 0,1.01016 0,0.33671 -0.15058,0.70898 0,1.01015 0.42592,0.85183 1.59439,1.16847 2.02031,2.0203 0.15058,0.30117 -0.2381,0.77206 0,1.01016 0.23809,0.23809 0.77205,-0.2381 1.01015,0 0.23809,0.23809 0,0.67343 0,1.01015 0,0.67343 0,1.34687 0,2.0203 0,0.33672 0,0.67344 0,1.01016 0,0.33671 0.33672,1.01015 0,1.01015 -0.33672,0 -0.33672,-1.01015 0,-1.01015 0.33672,0 0,0.67343 0,1.01015 0,0.33672 0,0.67343 0,1.01015 0,0.33672 0.33672,1.01015 0,1.01015 -0.33672,0 -0.33672,-1.01015 0,-1.01015 0.33672,0 0,0.67344 0,1.01015 0,0.45493 -0.15371,2.72304 0,3.03046 0.21296,0.42592 0.67343,0.67344 1.01015,1.01015"
       id="path5725"
       inkscape:connector-curvature="0" />
  </g>
</svg>
